<svg width="27" height="27" viewBox="0 0 27 27" fill="none" xmlns="http://www.w3.org/2000/svg">
<path d="M25.2184 12.9944C16.102 12.9944 14.0058 10.8982 14.0058 1.78174C14.0058 1.64756 13.9525 1.51888 13.8576 1.424C13.7627 1.32912 13.6341 1.27582 13.4999 1.27582C13.3657 1.27582 13.237 1.32912 13.1421 1.424C13.0473 1.51888 12.994 1.64756 12.994 1.78174C12.994 10.8982 10.8978 12.9944 1.78131 12.9944C1.64713 12.9944 1.51845 13.0477 1.42357 13.1426C1.32869 13.2374 1.27539 13.3661 1.27539 13.5003C1.27539 13.6345 1.32869 13.7632 1.42357 13.858C1.51845 13.9529 1.64713 14.0062 1.78131 14.0062C10.8978 14.0062 12.994 16.1024 12.994 25.2181C12.994 25.3522 13.0473 25.4809 13.1421 25.5758C13.237 25.6707 13.3657 25.724 13.4999 25.724C13.6341 25.724 13.7627 25.6707 13.8576 25.5758C13.9525 25.4809 14.0058 25.3522 14.0058 25.2181C14.0058 16.1024 16.102 14.0062 25.2184 14.0062C25.3526 14.0062 25.4813 13.9529 25.5762 13.858C25.6711 13.7632 25.7244 13.6345 25.7244 13.5003C25.7244 13.3661 25.6711 13.2374 25.5762 13.1426C25.4813 13.0477 25.3526 12.9944 25.2184 12.9944Z" fill="url(#paint0_linear_1604_11353)"/>
<defs>
<linearGradient id="paint0_linear_1604_11353" x1="13.4999" y1="1.27582" x2="13.4999" y2="25.724" gradientUnits="userSpaceOnUse">
<stop stop-color="#CFD8D0"/>
<stop offset="1" stop-color="#004236"/>
</linearGradient>
</defs>
</svg>
